<?xml version="1.0" encoding="UTF-8" standalone="no"?>
<svg width="52px" height="51px" viewBox="0 0 52 51" version="1.1" xmlns="http://www.w3.org/2000/svg" xmlns:xlink="http://www.w3.org/1999/xlink">
    <!-- Generator: Sketch 44.1 (41455) - http://www.bohemiancoding.com/sketch -->
    <title>Slice 1</title>
    <desc>Created with Sketch.</desc>
    <defs></defs>
    <g id="Page-1" stroke="none" stroke-width="1" fill="none" fill-rule="evenodd">
        <g id="Generate_Symbol_All_White" transform="translate(1.000000, 0.000000)">
            <path d="M31.239,27.119 C31.239,31.783 27.459,35.563 22.795,35.563 C18.131,35.563 14.35,31.783 14.35,27.119 C14.35,22.454 18.131,18.674 22.795,18.674 C27.459,18.674 31.239,22.454 31.239,27.119" id="Shape" fill="#FFFFFF" fill-rule="nonzero"></path>
            <path d="M45.236,11.026 C42.109,6.673 37.748,3.267 32.664,1.321 L28.119,14.513 C30.266,15.422 32.135,16.863 33.557,18.672 L45.236,11.026 Z" id="Shape" fill="#FFFFFF" fill-rule="nonzero"></path>
            <path d="M49.557,33.175 C50.612,27.92 50.133,22.407 48.093,17.36 L35.34,23.023 C36.139,25.214 36.357,27.565 36.001,29.837 L49.557,33.175 Z" id="Shape" fill="#FFFFFF" fill-rule="nonzero"></path>
            <path d="M26.077,0.227 C20.762,-0.457 15.295,0.409 10.404,2.798 L16.949,15.121 C19.079,14.171 21.407,13.789 23.7,13.984 L26.077,0.227 Z" id="Shape" fill="#FFFFFF" fill-rule="nonzero"></path>
            <path d="M7.751,9.992 C2.999,14.169 0,20.294 0,27.118 C0,39.707 10.205,49.913 22.794,49.913 C32.236,49.913 40.337,44.172 43.798,35.991 L34.96,33.812 C32.597,38.098 28.035,41.001 22.794,41.001 C15.127,41.001 8.911,34.785 8.911,27.117 C8.911,23.313 10.441,19.866 12.919,17.358 L7.751,9.992 Z" id="Shape" fill="#FFFFFF" fill-rule="nonzero"></path>
            <path d="M7.751,9.992 C2.999,14.169 0,20.294 0,27.118 C0,39.707 10.205,49.913 22.794,49.913 C32.236,49.913 40.337,44.172 43.798,35.991 L34.96,33.812 C32.597,38.098 28.035,41.001 22.794,41.001 C15.127,41.001 8.911,34.785 8.911,27.117 C8.911,23.313 10.441,19.866 12.919,17.358 L7.751,9.992 Z" id="Shape" stroke="#FFFFFF"></path>
        </g>
    </g>
</svg>