<?xml version="1.0" encoding="utf-8"?>
<!-- Generator: Adobe Illustrator 16.0.0, SVG Export Plug-In . SVG Version: 6.00 Build 0)  -->
<!DOCTYPE svg PUBLIC "-//W3C//DTD SVG 1.1//EN" "http://www.w3.org/Graphics/SVG/1.1/DTD/svg11.dtd">
<svg version="1.1" id="Layer_1" xmlns="http://www.w3.org/2000/svg" xmlns:xlink="http://www.w3.org/1999/xlink" x="0px" y="0px"
	 width="70.114px" height="69.81px" viewBox="0 0 70.114 69.81" enable-background="new 0 0 70.114 69.81" xml:space="preserve">
<g>
	<path fill="#FFFFFF" d="M41.239,37.119c0,4.664-3.78,8.444-8.444,8.444s-8.445-3.78-8.445-8.444c0-4.665,3.781-8.445,8.445-8.445
		S41.239,32.454,41.239,37.119"/>
	<path fill="#FFFFFF" d="M55.236,21.026c-3.127-4.353-7.488-7.759-12.572-9.705l-4.545,13.192c2.147,0.909,4.016,2.35,5.438,4.159
		L55.236,21.026z"/>
	<path fill="#FFFFFF" d="M59.557,43.175c1.055-5.255,0.576-10.768-1.464-15.815L45.34,33.023c0.799,2.191,1.017,4.542,0.661,6.814
		L59.557,43.175z"/>
	<path fill="#FFFFFF" d="M36.077,10.227c-5.315-0.684-10.782,0.182-15.673,2.571l6.545,12.323c2.13-0.95,4.458-1.332,6.751-1.137
		L36.077,10.227z"/>
	<path fill="#FFFFFF" d="M17.751,19.992C12.999,24.169,10,30.294,10,37.118c0,12.589,10.205,22.795,22.794,22.795
		c9.442,0,17.543-5.741,21.004-13.922l-8.838-2.179c-2.363,4.286-6.925,7.189-12.166,7.189c-7.667,0-13.883-6.216-13.883-13.884
		c0-3.804,1.53-7.251,4.008-9.759L17.751,19.992z"/>
	<path fill="none" stroke="#FFFFFF" stroke-miterlimit="10" d="M17.751,19.992C12.999,24.169,10,30.294,10,37.118
		c0,12.589,10.205,22.795,22.794,22.795c9.442,0,17.543-5.741,21.004-13.922l-8.838-2.179c-2.363,4.286-6.925,7.189-12.166,7.189
		c-7.667,0-13.883-6.216-13.883-13.884c0-3.804,1.53-7.251,4.008-9.759L17.751,19.992z"/>
</g>
</svg>
